<svg width="54" height="57" viewBox="0 0 54 57" fill="none" xmlns="http://www.w3.org/2000/svg">
<g clip-path="url(#clip0_1_6)">
<path d="M27 0C12.09 0 0 12.7617 0 28.5C0 44.2383 12.09 57 27 57C41.9099 57 54 44.2383 54 28.5C54 12.7617 41.9099 0 27 0ZM41.8919 22.0273H37.1281V38.817C37.1281 39.615 37.2119 40.2357 37.3739 40.66C37.5359 41.0717 37.7339 41.3883 37.9679 41.5847C38.2019 41.781 38.4601 41.9013 38.736 41.933C39.0541 41.9773 39.3719 41.9963 39.69 41.9963C40.1099 41.9963 40.4699 41.99 40.788 41.9773C41.1601 41.9583 41.3221 41.9203 41.3941 41.8887L41.7659 41.7303V43.282L41.526 43.3137C41.2799 43.3453 41.04 43.3707 40.806 43.4023C40.5599 43.434 40.1279 43.4467 39.4799 43.4467C38.4601 43.4467 37.5781 43.1237 36.864 42.4903C36.1319 41.8443 35.7601 40.6663 35.7601 38.9943V22.0273H31.9919H31.896H27.2281V38.817C27.2281 39.615 27.3119 40.2357 27.4739 40.66C27.6359 41.0717 27.8339 41.3883 28.0679 41.5847C28.3019 41.781 28.5601 41.9013 28.836 41.933C29.1541 41.9773 29.4719 41.9963 29.79 41.9963C30.2099 41.9963 30.5699 41.99 30.888 41.9773C31.2601 41.9583 31.4221 41.9203 31.4941 41.8887L31.8659 41.7303V43.282L31.626 43.3137C31.3799 43.3453 31.14 43.3707 30.906 43.4023C30.6599 43.434 30.2279 43.4467 29.5799 43.4467C28.5601 43.4467 27.6781 43.1237 26.964 42.4903C26.2319 41.8443 25.8601 40.6663 25.8601 38.9943V22.0273H22.0919H21.996H17.328V38.817C17.328 39.615 17.412 40.2357 17.574 40.66C17.736 41.0717 17.934 41.3883 18.1679 41.5847C18.4019 41.781 18.6601 41.9013 18.936 41.933C19.2541 41.9773 19.5719 41.9963 19.89 41.9963C20.3099 41.9963 20.6699 41.99 20.988 41.9773C21.3601 41.9583 21.5221 41.9203 21.5941 41.8887L21.9659 41.7303V43.282L21.726 43.3137C21.4799 43.3453 21.24 43.3707 21.006 43.4023C20.7599 43.434 20.3279 43.4467 19.6799 43.4467C18.6601 43.4467 17.778 43.1237 17.064 42.4903C16.332 41.8443 15.96 40.6663 15.96 38.9943V22.0273H12.102V20.5833H15.96V13.5597H17.328V20.5833H21.996H22.0919H25.8601V13.5597H27.2281V20.5833H31.896H31.9919H35.7601V13.5597H37.1281V20.5833H41.8919V22.0273Z" fill="white"/>
</g>
<defs>
<clipPath id="clip0_1_6">
<rect width="54" height="57" fill="white"/>
</clipPath>
</defs>
</svg>
